<?xml version="1.0" encoding="UTF-8"?>
<svg id="Laag_1" data-name="Laag 1" xmlns="http://www.w3.org/2000/svg" width="35.17" height="36.04" viewBox="0 0 35.17 36.04">
  <defs>
    <style>
      .cls-1 {
        fill: #fff;
        fill-rule: evenodd;
      }
    </style>
  </defs>
  <path class="cls-1" d="m12.31,1.76C12.31.79,11.52,0,10.55,0s-1.76.79-1.76,1.76v.89c-.87.01-1.65.04-2.33.12-1.26.13-2.41.42-3.43,1.12-.7.48-1.3,1.08-1.78,1.78-.71,1.02-.99,2.17-1.12,3.43C.01,10.21,0,11.57,0,13.19v10.67c0,2.38,0,4.34.21,5.9.22,1.63.7,3.07,1.85,4.23s2.59,1.63,4.23,1.85c1.55.21,3.52.21,5.9.21h10.8c2.38,0,4.34,0,5.9-.21,1.63-.22,3.07-.7,4.23-1.85,1.15-1.15,1.63-2.59,1.85-4.23.21-1.55.21-3.52.21-5.9v-10.67c0-1.62-.01-2.98-.13-4.09-.13-1.26-.42-2.41-1.12-3.43-.48-.7-1.08-1.3-1.78-1.78-1.02-.71-2.17-.99-3.43-1.12-.68-.07-1.46-.1-2.33-.12v-.89c0-.97-.79-1.76-1.76-1.76s-1.76.79-1.76,1.76v.88h-10.55v-.88Zm19.34,11.43c0-1.65-.01-2.81-.11-3.72-.1-.98-.29-1.46-.52-1.8-.24-.35-.54-.65-.89-.89-.33-.23-.82-.42-1.8-.52-.55-.06-1.18-.08-1.96-.1v.87c0,.97-.79,1.76-1.76,1.76s-1.76-.79-1.76-1.76v-.88h-10.55v.88c0,.97-.79,1.76-1.76,1.76s-1.76-.79-1.76-1.76v-.87c-.78.01-1.42.04-1.96.1-.98.1-1.46.29-1.8.52-.35.24-.65.54-.89.89-.23.33-.42.82-.52,1.8-.1.91-.11,2.08-.11,3.72h28.13Zm-28.13,3.52v7.03c0,2.54,0,4.26.18,5.55.17,1.24.46,1.82.85,2.21.39.39.97.69,2.21.85,1.29.17,3.02.18,5.55.18h10.55c2.54,0,4.26,0,5.55-.18,1.24-.17,1.82-.46,2.21-.85.39-.39.69-.97.85-2.21.17-1.29.18-3.02.18-5.55v-7.03H3.52Z"/>
</svg>