<?xml version="1.0" encoding="UTF-8"?>
<svg id="Laag_1" data-name="Laag 1" xmlns="http://www.w3.org/2000/svg" width="40.15" height="40.15" viewBox="0 0 40.15 40.15">
  <defs>
    <style>
      .cls-1 {
        fill: #fff;
      }
    </style>
  </defs>
  <path class="cls-1" d="m20.07,0C9.01,0,0,9.01,0,20.07s9.01,20.07,20.07,20.07,20.07-9.01,20.07-20.07S31.14,0,20.07,0h0Zm0,3.54c9.15,0,16.53,7.38,16.53,16.53s-7.38,16.53-16.53,16.53S3.54,29.22,3.54,20.07,10.92,3.54,20.07,3.54h0Zm0,2.95c-.98,0-1.77.79-1.77,1.77v11.81c0,.65.36,1.22.89,1.53l9.21,5.31c.85.49,1.93.2,2.42-.65.49-.85.2-1.93-.65-2.42l-8.32-4.8v-10.79c0-.98-.79-1.77-1.77-1.77h0Z"/>
</svg>