<?xml version="1.0" encoding="UTF-8"?>
<svg id="Laag_1" data-name="Laag 1" xmlns="http://www.w3.org/2000/svg" width="34.76" height="44.24" viewBox="0 0 34.76 44.24">
  <defs>
    <style>
      .cls-1 {
        fill: #fff;
      }
    </style>
  </defs>
  <path class="cls-1" d="m17.38,23.7c-4.79,0-8.69-3.9-8.69-8.69s3.9-8.69,8.69-8.69,8.69,3.9,8.69,8.69-3.9,8.69-8.69,8.69Zm0-14.22c-3.05,0-5.53,2.48-5.53,5.53s2.48,5.53,5.53,5.53,5.53-2.48,5.53-5.53-2.48-5.53-5.53-5.53Zm0,34.76c-.38,0-.76-.13-1.06-.41-.67-.6-16.32-14.82-16.32-26.45C0,7.8,7.8,0,17.38,0s17.38,7.8,17.38,17.38c0,11.63-15.66,25.85-16.32,26.45-.3.27-.68.41-1.06.41h0Zm0-41.08c-7.84,0-14.22,6.38-14.22,14.22,0,8.62,10.76,19.75,14.22,23.11,3.46-3.36,14.22-14.48,14.22-23.11,0-7.84-6.38-14.22-14.22-14.22Z"/>
</svg>