<?xml version="1.0" encoding="UTF-8"?>
<svg id="Laag_1" data-name="Laag 1" xmlns="http://www.w3.org/2000/svg" width="399.29" height="126.87" viewBox="0 0 399.29 126.87">
  <defs>
    <style>
      .cls-1, .cls-2 {
        fill: #fff;
      }

      .cls-2 {
        opacity: .85;
      }
    </style>
  </defs>
  <polygon class="cls-2" points="59.54 125.34 0 65.79 59.54 65.79 59.54 125.34"/>
  <polygon class="cls-1" points="59.54 125.34 0 125.34 0 65.79 59.54 125.34"/>
  <path class="cls-1" d="m127.6,72.12c1.8,2.53,2.73,5.59,2.73,9.11s-.93,6.59-2.73,8.78c-1,1.26-2.53,2.39-4.52,3.39,3.06,1.13,5.32,2.86,6.85,5.26,1.53,2.39,2.33,5.32,2.33,8.72s-.86,6.72-2.66,9.51c-1.13,1.86-2.53,3.39-4.19,4.66-1.93,1.46-4.12,2.46-6.72,2.99s-5.39.8-8.38.8h-26.81v-59.54h28.74c7.18.13,12.31,2.2,15.37,6.32Zm-32.33,3.99v13.11h14.5c2.59,0,4.66-.47,6.32-1.46,1.6-1,2.39-2.73,2.39-5.26,0-2.79-1.06-4.59-3.19-5.52-1.86-.6-4.19-.93-7.05-.93h-12.97v.07Zm0,23.02v15.9h14.44c2.59,0,4.59-.33,6.05-1.06,2.59-1.33,3.93-3.79,3.93-7.45,0-3.13-1.26-5.26-3.79-6.39-1.4-.67-3.39-1-5.92-1-.07,0-14.7,0-14.7,0Z"/>
  <path class="cls-1" d="m175.76,119.95c-3.73,4.59-9.38,6.85-16.9,6.85s-13.24-2.26-16.9-6.85c-3.73-4.59-5.59-10.11-5.59-16.57s1.86-11.84,5.59-16.5c3.73-4.66,9.38-6.99,16.9-6.99s13.24,2.33,16.9,6.99c3.73,4.66,5.59,10.18,5.59,16.5s-1.86,11.97-5.59,16.57Zm-9.18-6.39c1.8-2.39,2.73-5.79,2.73-10.18s-.93-7.78-2.73-10.18c-1.8-2.39-4.39-3.59-7.78-3.59s-5.99,1.2-7.78,3.59c-1.8,2.39-2.73,5.79-2.73,10.18s.93,7.78,2.73,10.18c1.8,2.39,4.39,3.59,7.78,3.59s5.99-1.2,7.78-3.59Z"/>
  <path class="cls-1" d="m196.45,111.3c.27,2.06.8,3.53,1.6,4.39,1.46,1.53,4.06,2.33,7.98,2.33,2.26,0,4.06-.33,5.39-1,1.33-.67,2-1.66,2-3.06,0-1.26-.53-2.26-1.6-2.93s-5.12-1.8-12.04-3.46c-4.99-1.26-8.52-2.79-10.58-4.66s-3.06-4.46-3.06-7.92c0-4.06,1.6-7.58,4.79-10.51,3.19-2.93,7.72-4.39,13.5-4.39s9.98,1.06,13.44,3.26c3.46,2.2,5.46,5.99,5.99,11.38h-11.51c-.13-1.46-.6-2.66-1.26-3.53-1.26-1.6-3.46-2.33-6.45-2.33-2.53,0-4.32.4-5.39,1.2-1.06.8-1.6,1.73-1.6,2.73,0,1.33.6,2.26,1.73,2.86,1.13.6,5.12,1.66,12.04,3.19,4.59,1.06,8.05,2.73,10.31,4.92,2.26,2.2,3.39,4.99,3.39,8.25,0,4.39-1.6,7.92-4.86,10.71-3.26,2.79-8.25,4.12-15.1,4.12s-12.04-1.46-15.37-4.39c-3.33-2.93-4.92-6.65-4.92-11.18-.07,0,11.58,0,11.58,0Z"/>
  <path class="cls-1" d="m230.91,65.99h11.31v32.13l14.5-16.63h14.37l-15.77,16.37,16.37,27.41h-14.04l-10.64-18.83-4.79,4.99v13.84h-11.31v-59.28h0Z"/>
  <path class="cls-1" d="m293.05,98.53c2.13-.27,3.66-.6,4.59-1,1.66-.67,2.46-1.8,2.46-3.26,0-1.8-.67-3.06-1.93-3.73-1.26-.67-3.13-1.06-5.59-1.06-2.73,0-4.72.67-5.85,2-.8,1-1.33,2.33-1.66,4.06h-11.11c.27-3.86,1.33-6.99,3.26-9.51,3.06-3.86,8.32-5.79,15.77-5.79,4.86,0,9.11.93,12.91,2.86,3.79,1.93,5.65,5.52,5.65,10.84v20.22c0,1.4,0,3.13.07,5.06.07,1.53.33,2.53.67,3.06.4.53.93,1,1.73,1.33v1.73h-12.51c-.33-.86-.6-1.73-.73-2.53-.13-.8-.27-1.66-.33-2.66-1.6,1.73-3.46,3.19-5.52,4.39-2.46,1.4-5.32,2.13-8.45,2.13-3.99,0-7.32-1.13-9.91-3.39-2.59-2.26-3.93-5.52-3.93-9.65,0-5.39,2.13-9.31,6.32-11.78,2.33-1.33,5.72-2.26,10.18-2.86l3.93-.47Zm7.05,5.39c-.73.47-1.46.8-2.26,1.13-.73.27-1.8.53-3.06.8l-2.59.47c-2.46.4-4.19.93-5.32,1.6-1.8,1.06-2.73,2.66-2.73,4.86,0,2,.53,3.39,1.66,4.26s2.46,1.33,4.06,1.33c2.53,0,4.86-.73,6.92-2.2,2.13-1.46,3.19-4.12,3.33-7.98v-4.26Z"/>
  <path class="cls-1" d="m332.23,125.34h-11.51v-59.54h11.51v59.54Z"/>
  <path class="cls-1" d="m353.32,76.17h-11.64v-10.64h11.64v10.64Zm-11.64,5.26h11.64v44.04h-11.64v-44.04Z"/>
  <path class="cls-1" d="m370.62,111.3c.27,2.06.8,3.53,1.6,4.39,1.46,1.53,4.06,2.33,7.98,2.33,2.26,0,4.06-.33,5.39-1,1.33-.67,2-1.66,2-3.06,0-1.26-.53-2.26-1.6-2.93-1.06-.67-5.06-1.8-12.04-3.46-4.99-1.26-8.52-2.79-10.58-4.66-2.06-1.86-3.06-4.46-3.06-7.92,0-4.06,1.6-7.58,4.79-10.51,3.19-2.93,7.72-4.39,13.5-4.39s9.98,1.06,13.44,3.26c3.46,2.2,5.46,5.99,5.99,11.38h-11.51c-.13-1.46-.6-2.66-1.26-3.53-1.26-1.6-3.46-2.33-6.45-2.33-2.53,0-4.32.4-5.39,1.2-1.06.8-1.6,1.73-1.6,2.73,0,1.33.6,2.26,1.73,2.86,1.13.6,5.12,1.66,12.04,3.19,4.59,1.06,8.05,2.73,10.31,4.92,2.26,2.2,3.39,4.99,3.39,8.25,0,4.39-1.6,7.92-4.86,10.71-3.26,2.79-8.25,4.12-15.1,4.12s-12.04-1.46-15.37-4.39c-3.33-2.93-4.99-6.65-4.99-11.18-.07,0,11.64,0,11.64,0Z"/>
  <path class="cls-1" d="m21.09,13.37l.8,7.38c-3.99.53-7.85,1.46-11.31,2.73l4.06,17.43H5.65L0,20.29h0c5.32-3.33,12.97-5.85,21.09-6.92Zm-14.3,31.73l2.39,8.78h41.18l2.39-8.78H6.79Zm52.76-24.88h0l-5.65,20.62h-8.91l4.06-17.43c-3.46-1.26-7.38-2.2-11.31-2.73l.8-7.38c8.12,1.13,15.77,3.66,21.02,6.92ZM25.41,8.72h8.72V0h-8.72v8.72Zm0,4.19v28.01h8.72V12.91c-1.46-.07-2.93-.13-4.32-.13h0c-1.46,0-2.93.07-4.39.13Z"/>
</svg>