<?xml version="1.0" encoding="UTF-8"?>
<svg id="Laag_1" data-name="Laag 1" xmlns="http://www.w3.org/2000/svg" width="204.79" height="109.09" viewBox="0 0 204.79 109.09">
  <defs>
    <style>
      .cls-1 {
        fill: #fff;
      }
    </style>
  </defs>
  <path class="cls-1" d="m136.59,14.68c-2.33,0-5.44.91-9.4,3.88-19.87,14.94-29.87,36.5-30.76,50.2-.22,3.35.11,6.41.84,9.18,17.83-10.8,34.08-25.27,42.98-41.17,3.42-6.1,6.51-14.48,1.83-19.71l-.2-.23c-.44-.49-2.16-2.15-5.3-2.15M41.14,109.09c-3.35,0-6.62-.26-9.78-.8-7.74-1.32-15.39-5.65-21.01-11.86C3.61,88.98.03,79.26,0,68.31-.08,39.29,26.13,13.8,48.6.8c2.82-1.63,6.44-.68,8.08,2.12,1.64,2.8.69,6.4-2.13,8.03C22.94,29.24,11.77,53.27,11.82,68.28c.05,19.58,14.12,27.16,21.55,28.43,13.55,2.32,33.71-2.91,53.32-12.89-1.55-4.41-2.45-9.67-2.05-15.82,1.5-23.24,19.41-46.78,35.42-58.82,17.65-13.27,29.23-1.73,30.86.07h0c4.19,4.69,9.72,15.24-.35,33.22-8.36,14.92-26.62,32.34-47.94,45.61,4.35,5.05,10.23,7.98,15.19,8.68,28.51,4.05,62.25-19.35,75.89-43.74,1.59-2.83,5.18-3.86,8.04-2.28,2.85,1.58,3.88,5.15,2.29,7.99-15.49,27.68-53.49,54.54-87.89,49.66-7.8-1.11-15.91-5.49-21.68-11.72-.73-.78-1.47-1.65-2.2-2.6-16.91,9.02-34.98,15.01-51.14,15.01"/>
</svg>