<?xml version="1.0" encoding="UTF-8"?>
<svg id="Laag_1" data-name="Laag 1" xmlns="http://www.w3.org/2000/svg" width="181.73" height="100.83" xmlns:xlink="http://www.w3.org/1999/xlink" viewBox="0 0 181.73 100.83">
  <defs>
    <style>
      .cls-1 {
        fill: none;
      }

      .cls-2 {
        clip-path: url(#clippath);
      }

      .cls-3 {
        fill: #fff;
      }

      .cls-4 {
        clip-path: url(#clippath-1);
      }
    </style>
    <clipPath id="clippath">
      <rect class="cls-1" y="0" width="181.73" height="100.83"/>
    </clipPath>
    <clipPath id="clippath-1">
      <rect class="cls-1" y="0" width="181.73" height="100.83"/>
    </clipPath>
  </defs>
  <g id="Artwork_1" data-name="Artwork 1">
    <g class="cls-2">
      <polygon class="cls-3" points="97.42 0 83.44 51.66 68.84 0 50.68 0 36.08 51.66 22.09 0 0 0 26.39 81.84 45.65 81.84 59.77 34.98 73.87 81.84 93.13 81.84 113.35 19.15 136.81 19.15 136.81 81.84 157.92 81.84 157.92 19.15 181.73 19.15 181.73 0 97.42 0"/>
      <rect class="cls-3" x="15.44" y="90.11" width="1.9" height="10.6"/>
      <polygon class="cls-3" points="33.24 90.11 33.24 97.95 27.81 90.11 25.52 90.11 25.52 100.71 27.44 100.71 27.44 92.78 32.92 100.71 35.21 100.71 35.21 90.11 33.24 90.11"/>
      <polygon class="cls-3" points="42.56 90.11 42.56 92.01 45.95 92.01 45.95 100.71 47.84 100.71 47.84 92.01 51.2 92.01 51.2 90.11 42.56 90.11"/>
      <polygon class="cls-3" points="58.54 90.11 58.54 100.71 65.6 100.71 65.6 98.98 60.34 98.98 60.34 96.3 64.91 96.3 64.91 94.5 60.34 94.5 60.34 91.82 65.6 91.82 65.6 90.11 58.54 90.11"/>
      <g class="cls-4">
        <path class="cls-3" d="m81.79,100.71h-2.28l-2.54-3.75h-1.71v3.75h-1.9v-10.6h4.07c2.44,0,3.93,1.19,3.93,3.38.08,1.46-.87,2.78-2.28,3.15l2.72,4.07Zm-4.43-5.48c1.1,0,2.06-.27,2.06-1.67s-.96-1.67-2.06-1.67h-2.12v3.34h2.12Z"/>
        <path class="cls-3" d="m96.21,98.15h-4.57l-.98,2.56h-2.06l4.23-10.6h2.1l4.25,10.6h-2.06l-.91-2.56Zm-.69-1.74l-1.55-4.16-1.64,4.16h3.2Z"/>
        <path class="cls-3" d="m113.9,98.4v1.78c-1.01.42-2.1.64-3.2.64-2.28,0-4.94-.94-4.94-5.44s2.67-5.44,4.84-5.44c1.1.01,2.18.23,3.2.64v1.78c-.94-.45-1.97-.68-3.02-.69-1.67,0-3.22.43-3.22,3.7s1.55,3.72,3.22,3.72c1.08,0,2.14-.24,3.11-.71"/>
        <polygon class="cls-3" points="129.59 90.11 129.59 92.01 126.21 92.01 126.21 100.71 124.31 100.71 124.31 92.01 120.91 92.01 120.91 90.11 129.59 90.11"/>
        <rect class="cls-3" x="136.88" y="90.11" width="1.9" height="10.6"/>
        <polygon class="cls-3" points="154.02 90.11 156.05 90.11 152 100.71 150.06 100.71 146 90.11 148.03 90.11 151.02 98.34 154.02 90.11"/>
        <polygon class="cls-3" points="165.21 94.5 169.67 94.5 169.67 96.3 165.21 96.3 165.21 98.98 170.35 98.98 170.35 100.71 163.31 100.71 163.31 90.11 170.35 90.11 170.35 91.82 165.21 91.82 165.21 94.5"/>
      </g>
    </g>
  </g>
</svg>