<?xml version="1.0" encoding="UTF-8"?>
<svg id="Layer_1" data-name="Layer 1" xmlns="http://www.w3.org/2000/svg" width="683.95" height="108.36" xmlns:xlink="http://www.w3.org/1999/xlink" viewBox="0 0 683.95 108.36">
  <defs>
    <style>
      .cls-1, .cls-2 {
        fill: none;
      }

      .cls-3 {
        clip-path: url(#clippath);
      }

      .cls-2 {
        stroke: #2786a0;
        stroke-miterlimit: 10;
        stroke-width: 1.85px;
      }

      .cls-4 {
        opacity: .24;
      }

      .cls-5 {
        opacity: .86;
      }
    </style>
    <clipPath id="clippath">
      <polygon class="cls-1" points="683.95 108.36 0 108.36 40 0 683.95 0 683.95 108.36"/>
    </clipPath>
  </defs>
  <g class="cls-5">
    <g class="cls-3">
      <g class="cls-4">
        <path class="cls-2" d="m628.71,359.36l207.88-567.01h101.92s-208.68,567.01-208.68,567.01h-101.11Z"/>
        <path class="cls-2" d="m558.71,359.36l207.88-567.01h101.92s-208.68,567.01-208.68,567.01h-101.11Z"/>
        <path class="cls-2" d="m488.71,359.36l207.88-567.01h101.92s-208.68,567.01-208.68,567.01h-101.11Z"/>
        <path class="cls-2" d="m418.71,359.36l207.88-567.01h101.92s-208.68,567.01-208.68,567.01h-101.11Z"/>
        <path class="cls-2" d="m348.71,359.36l207.88-567.01h101.92s-208.68,567.01-208.68,567.01h-101.11Z"/>
        <path class="cls-2" d="m278.71,359.36L486.59-207.65h101.92s-208.68,567.01-208.68,567.01h-101.11Z"/>
        <path class="cls-2" d="m208.71,359.36L416.59-207.65h101.92s-208.68,567.01-208.68,567.01h-101.11Z"/>
        <path class="cls-2" d="m138.71,359.36L346.59-207.65h101.92S239.82,359.36,239.82,359.36h-101.11Z"/>
        <path class="cls-2" d="m68.71,359.36L276.59-207.65h101.92S169.82,359.36,169.82,359.36h-101.11Z"/>
        <path class="cls-2" d="m-1.29,359.36L206.59-207.65h101.92S99.82,359.36,99.82,359.36H-1.29Z"/>
        <path class="cls-2" d="m-71.29,359.36L136.59-207.65h101.92S29.82,359.36,29.82,359.36h-101.11Z"/>
        <path class="cls-2" d="m-141.29,359.36L66.59-207.65h101.92S-40.18,359.36-40.18,359.36h-101.11Z"/>
        <path class="cls-2" d="m-211.29,359.36L-3.41-207.65h101.92S-110.18,359.36-110.18,359.36h-101.11Z"/>
        <path class="cls-2" d="m-281.29,359.36L-73.41-207.65H28.5S-180.18,359.36-180.18,359.36h-101.11Z"/>
      </g>
    </g>
  </g>
</svg>